<?xml version="1.0" encoding="UTF-8" standalone="no"?>
<!-- Created with Inkscape (http://www.inkscape.org/) -->

<svg
   width="55mm"
   height="54.999996mm"
   viewBox="0 0 55 54.999997"
   version="1.1"
   id="svg5"
   xmlns="http://www.w3.org/2000/svg"
   xmlns:svg="http://www.w3.org/2000/svg">
  <defs
     id="defs2" />
  <g
     id="layer1"
     transform="translate(-21.822476,-9.3526439)">
    <g
       id="g3561"
       style="display:none">
      <rect
         style="fill:#e0e0e0;stroke:#666666;stroke-width:0.499999;stroke-dasharray:none"
         id="rect3384"
         width="10.577858"
         height="11.037764"
         x="41.25354"
         y="9.352644" />
      <rect
         style="fill:#e0e0e0;stroke:#666666;stroke-width:0.499999;stroke-dasharray:none"
         id="rect3384-4"
         width="10.577858"
         height="11.037764"
         x="43.57431"
         y="-45.729866"
         transform="rotate(60)" />
      <rect
         style="fill:#e0e0e0;stroke:#666666;stroke-width:0.499999;stroke-dasharray:none"
         id="rect3384-4-7"
         width="10.577858"
         height="11.037764"
         x="-2.9681563"
         y="-75.280968"
         transform="rotate(120)" />
      <rect
         style="fill:#e0e0e0;stroke:#666666;stroke-width:0.499999;stroke-dasharray:none"
         id="rect3384-1"
         width="10.577858"
         height="11.037764"
         x="-51.712643"
         y="-49.749561"
         transform="scale(-1)" />
      <rect
         style="fill:#e0e0e0;stroke:#666666;stroke-width:0.499999;stroke-dasharray:none"
         id="rect3384-4-2"
         width="10.577858"
         height="11.037764"
         x="-54.092793"
         y="5.2301102"
         transform="rotate(-120)" />
      <circle
         style="display:inline;fill:none;stroke:#666666;stroke-width:0.499999;stroke-dasharray:none"
         id="path3679"
         cx="46.487888"
         cy="29.551102"
         r="14.053396" />
      <rect
         style="fill:#e0e0e0;stroke:#666666;stroke-width:0.499999;stroke-dasharray:none"
         id="rect3384-4-7-8"
         width="10.577858"
         height="11.037764"
         x="-7.6690722"
         y="34.781219"
         transform="rotate(-60)" />
    </g>
    <path
       id="path3656"
       style="fill:#e0e0e0;fill-opacity:1;stroke:#595959;stroke-width:0.604733;stroke-dasharray:none;stroke-opacity:1"
       d="m 42.997411,12.423258 c 0,0 1.491882,7.62607 -2.374015,9.830407 -3.865674,2.20421 -9.330697,-3.155363 -9.330697,-3.155363 l -6.397026,11.079427 c 0,0 7.435723,2.225106 7.435722,6.675045 -10e-7,4.449943 -7.435722,6.674528 -7.435722,6.674528 l 6.397026,11.079944 c 0,0 5.478489,-5.379816 9.332247,-3.154846 3.853759,2.22497 2.228804,9.829891 2.228804,9.829891 h 12.793535 c 0,0 -1.532712,-7.553835 2.315104,-9.789067 3.883723,-2.256091 9.390124,3.114022 9.390124,3.114022 l 6.396509,-11.079427 c 0,0 -7.423319,-2.225104 -7.423319,-6.675045 0,-4.449939 7.423319,-6.675045 7.423319,-6.675045 L 67.352513,19.098302 c 0,0 -5.4604,5.383434 -9.31416,3.158464 -3.853761,-2.22497 -2.247408,-9.833508 -2.247408,-9.833508 z m 6.325195,12.039058 A 12.088838,12.390198 0 0 1 61.411274,36.852774 12.088838,12.390198 0 0 1 49.322606,49.242716 12.088838,12.390198 0 0 1 37.233422,36.852774 12.088838,12.390198 0 0 1 49.322606,24.462316 Z" />
  </g>
</svg>
