<?xml version="1.0" encoding="UTF-8" standalone="no"?>
<!-- Created with Inkscape (http://www.inkscape.org/) -->

<svg
   width="159mm"
   height="159mm"
   viewBox="0 0 159 159"
   version="1.1"
   id="svg5"
   inkscape:version="1.2.1 (9c6d41e410, 2022-07-14)"
   sodipodi:docname="youtube_stream_highlight.svg"
   inkscape:export-filename="youtube_stream_highlight.svg"
   inkscape:export-xdpi="300"
   inkscape:export-ydpi="300"
   xmlns:inkscape="http://www.inkscape.org/namespaces/inkscape"
   xmlns:sodipodi="http://sodipodi.sourceforge.net/DTD/sodipodi-0.dtd"
   xmlns="http://www.w3.org/2000/svg"
   xmlns:svg="http://www.w3.org/2000/svg">
  <sodipodi:namedview
     id="namedview7"
     pagecolor="#ffffff"
     bordercolor="#000000"
     borderopacity="0.25"
     inkscape:showpageshadow="2"
     inkscape:pageopacity="0.0"
     inkscape:pagecheckerboard="0"
     inkscape:deskcolor="#d1d1d1"
     inkscape:document-units="mm"
     showgrid="false"
     inkscape:zoom="1.7323909"
     inkscape:cx="397.13901"
     inkscape:cy="254.8501"
     inkscape:window-width="1920"
     inkscape:window-height="992"
     inkscape:window-x="-8"
     inkscape:window-y="-8"
     inkscape:window-maximized="1"
     inkscape:current-layer="layer1" />
  <defs
     id="defs2">
    <inkscape:path-effect
       effect="simplify"
       id="path-effect3404"
       is_visible="true"
       lpeversion="1"
       steps="1"
       threshold="0.000625"
       smooth_angles="360"
       helper_size="0"
       simplify_individual_paths="false"
       simplify_just_coalesce="false" />
    <inkscape:path-effect
       effect="simplify"
       id="path-effect3396"
       is_visible="true"
       lpeversion="1"
       steps="1"
       threshold="0.000625"
       smooth_angles="360"
       helper_size="0"
       simplify_individual_paths="false"
       simplify_just_coalesce="false" />
    <inkscape:path-effect
       effect="simplify"
       id="path-effect3392"
       is_visible="true"
       lpeversion="1"
       steps="1"
       threshold="0.000625"
       smooth_angles="360"
       helper_size="0"
       simplify_individual_paths="false"
       simplify_just_coalesce="false" />
    <inkscape:path-effect
       effect="simplify"
       id="path-effect3388"
       is_visible="true"
       lpeversion="1"
       steps="1"
       threshold="0.000625"
       smooth_angles="360"
       helper_size="0"
       simplify_individual_paths="false"
       simplify_just_coalesce="false" />
    <inkscape:path-effect
       effect="simplify"
       id="path-effect3384"
       is_visible="true"
       lpeversion="1"
       steps="1"
       threshold="0.000625"
       smooth_angles="360"
       helper_size="0"
       simplify_individual_paths="false"
       simplify_just_coalesce="false" />
  </defs>
  <g
     inkscape:label="Ebene 1"
     inkscape:groupmode="layer"
     id="layer1"
     transform="translate(-20.681008,-9.8489997)">
    <path
       style="fill:#80e5ff;stroke-width:0.264583"
       d="M 20.681008,30.529106 43.82404,13.048731 158.30819,14.279744 180.27946,36.344491 179.69358,109.46663 160.52401,134.18035 48.994292,129.7487 24.127843,107.09808 Z"
       id="path407"
       sodipodi:nodetypes="ccccccccc" />
    <path
       style="fill:#ffffff;stroke-width:0.45095"
       d="M 77.850669,54.943058 73.61454,92.286023 102.42023,75.659216 Z"
       id="path465" />
    <path
       style="fill:#ffd5d5;stroke-width:0.255348"
       d="m 112.51454,46.77847 2.47179,100.45061 60.30983,4.92405 -0.56972,-107.098077 z"
       id="path804"
       sodipodi:nodetypes="ccccc" />
    <ellipse
       style="fill:#ff9955;stroke-width:0.264583"
       id="path1008"
       cx="125.07086"
       cy="61.078167"
       rx="5.6626568"
       ry="4.6578946" />
    <ellipse
       style="fill:#ff5555;stroke-width:0.264583"
       id="path1010"
       cx="126.42497"
       cy="78.90789"
       rx="4.3085446"
       ry="5.2933536" />
    <ellipse
       style="fill:#ff7f2a;stroke-width:0.264583"
       id="path1012"
       cx="127.16358"
       cy="96.183662"
       rx="3.5699365"
       ry="2.4204266" />
    <ellipse
       style="fill:#afe9c6;stroke-width:0.264583"
       id="path1014"
       cx="127.53288"
       cy="111.28352"
       rx="5.4164553"
       ry="3.9392397" />
    <ellipse
       style="fill:#d5f6ff;stroke-width:0.264583"
       id="path1016"
       cx="128.27148"
       cy="130.36421"
       rx="4.6778464"
       ry="3.816138" />
    <path
       style="fill:none;stroke:#ff8080;stroke-width:0.264583"
       d="m 135.47981,62.093494 c 0.31271,-0.242449 0.74353,-0.359979 0.95343,-0.709865 0.52934,-0.882384 1.04673,-1.775388 1.47373,-2.712931 0.31906,-0.700545 0.53875,-1.443639 0.66962,-2.20178 0.17216,-0.997335 0.31727,-1.998857 0.46485,-3.000202 0.0434,-0.294749 0.11956,-0.585041 0.14746,-0.881628 0.0228,-0.242467 -0.0236,-0.509528 0.10489,-0.72705 0.11474,-0.194218 0.37262,-0.222618 0.57591,-0.182758 0.24618,0.04827 0.45444,0.204453 0.61413,0.39778 1.14745,1.389172 2.04083,2.959995 2.97219,4.495338 1.10467,1.821044 1.97229,3.778547 3.18988,5.534948 0.16324,0.235478 0.35054,0.456259 0.58134,0.629221 0.48288,0.361874 1.03304,0.619905 1.59126,0.836306 0.1323,0.05129 0.335,0.129101 0.42874,0.0025 0.51566,-0.696402 1.02247,-1.401577 1.48083,-2.137725 0.36465,-0.585646 0.66851,-1.213802 0.84547,-1.882831 0.20288,-0.767039 0.34233,-1.548708 0.51327,-2.323177 0.12194,-0.552463 0.26752,-1.099388 0.40137,-1.648895 0.0317,-0.130303 0.0317,-0.298839 0.1513,-0.379534 0.0969,-0.06537 0.19818,0.02731 0.22957,0.123617 0.0497,0.152538 0.0777,0.309435 0.13497,0.461321 0.29053,0.769889 0.60893,1.530226 0.8599,2.314435 0.26445,0.826321 0.33349,1.696481 0.42067,2.55435 0.0502,0.493701 0.14451,0.984548 0.15665,1.480524 0.006,0.259094 -0.0411,0.532222 0.0641,0.77857 0.0619,0.145097 0.23715,0.189236 0.38018,0.154101 0.44622,-0.109615 0.91672,-0.241076 1.25392,-0.570037 0.26367,-0.257226 0.47853,-0.558867 0.73855,-0.820157 0.54104,-0.54368 1.15842,-1.015807 1.83126,-1.378545 0.48848,-0.263345 1.02433,-0.425571 1.56068,-0.557533 0.75314,-0.185302 1.53841,-0.541638 2.29572,-0.370129 0.083,0.0188 0.27092,-0.07033 0.26536,0.06046 -0.006,0.147198 -0.11133,0.319101 -0.0245,0.443056 0.0798,0.113864 0.22203,-0.01739 0.29539,-0.08025 0.36435,-0.312201 0.65492,-0.698024 0.95333,-1.070615 1.03802,-1.296048 2.06348,-2.622717 3.33064,-3.70508 0.60148,-0.513761 1.25217,-1.015569 2.0192,-1.240895 0.48113,-0.141339 0.98537,-0.184656 1.48469,-0.195994 0.98833,-0.02244 1.97278,0.103262 2.96081,0.09818"
       id="path3382"
       inkscape:path-effect="#path-effect3384"
       inkscape:original-d="m 135.47981,62.093494 c 0.32827,-0.252854 0.77226,-0.402867 0.98481,-0.75856 2.43307,-4.071546 1.88535,-4.091239 2.70823,-8.617087 0.0605,-0.332915 -0.0439,-0.810718 0.2462,-0.984811 0.29015,-0.174091 0.76685,-0.01262 0.98481,0.246202 1.14359,1.358019 2.01994,2.922093 2.95443,4.431647 1.20021,1.938803 2.06869,4.092215 3.44683,5.908857 0.46794,0.616818 1.27714,0.88477 1.96962,1.231014 0.14681,0.0734 0.39535,0.132358 0.49241,0 2.82893,-3.857633 2.0111,-3.358269 3.20063,-7.878479 0.0467,-0.177467 0.0627,-0.492406 0.2462,-0.492406 0.18351,0 0.18033,0.321128 0.24621,0.492406 1.26391,3.28618 1.04572,2.517817 1.47721,6.401263 0.0331,0.297783 -0.15773,1.147344 0.49241,0.98481 1.88408,-0.471021 0.88834,-0.971986 3.69304,-2.708227 0.87957,-0.544502 3.11229,-0.984808 4.18544,-0.984808 0.1231,0 -0.32828,1.066877 0.4924,0.2462 0.97127,-0.97127 3.88192,-5.412827 6.40126,-5.908858 1.35684,-0.267147 2.76574,-0.01471 4.14861,-0.02207"
       sodipodi:nodetypes="ccsssssscsscssssssc" />
    <path
       style="fill:none;stroke:#ff8080;stroke-width:0.264583"
       d="m 136.31511,82.231626 c 0.55269,-1.414114 1.03388,-2.86892 1.81245,-4.180824 0.51984,-0.875938 1.1956,-1.68227 2.06851,-2.225406 0.78592,-0.489009 1.71541,-0.715283 2.63655,-0.72156 0.69564,-0.0047 1.39426,0.08031 2.0634,0.267785 0.50043,0.140206 0.94466,0.442041 1.29426,0.822906 0.47623,0.518821 0.8057,1.150874 1.09677,1.78648 0.47519,1.037663 0.84272,2.128969 1.43246,3.110862 0.31788,0.529254 0.62758,1.190074 1.2178,1.38596 0.0853,0.0283 0.12552,-0.08715 0.15067,-0.149778 0.12365,-0.307878 0.19391,-0.63409 0.26054,-0.957967 0.21506,-1.045364 0.38078,-2.100472 0.5191,-3.158398 0.0186,-0.142491 0.0558,-0.283937 0.0553,-0.427603 -2.4e-4,-0.06962 -0.079,-0.154048 -0.0289,-0.204924 0.0529,-0.05364 0.14176,-0.05916 0.2144,-0.06905 0.3669,-0.04994 0.73097,0.07763 1.05282,0.24324 0.49222,0.253276 0.91937,0.609052 1.35278,0.948539 0.11829,0.09265 0.2738,0.148066 0.3589,0.273459 0.06,0.08841 -0.10099,0.06062 -0.14845,0.06042 -0.0471,-2.04e-4 -0.2261,-0.01892 -0.15765,0.05581 0.10108,0.11035 0.23145,0.188901 0.35746,0.267208 0.25476,0.158317 0.50375,0.330123 0.77633,0.455303 0.33354,0.153177 0.70505,0.194357 1.06762,0.212194 0.51312,0.02524 1.02617,-0.01057 1.53945,-0.01048 1.24141,2.19e-4 2.48337,-0.03655 3.72421,3.29e-4 0.13912,0.0041 0.28396,0.09844 0.41598,0.0384 0.0843,-0.03835 0.13899,-0.12125 0.18105,-0.200195 0.13299,-0.24961 0.13007,-0.541392 0.12708,-0.816563 -4.7e-4,-0.04329 -0.001,-0.08659 -0.001,-0.129887"
       id="path3386"
       inkscape:path-effect="#path-effect3388"
       inkscape:original-d="m 136.31511,82.231626 c 1.28717,-3.270517 2.5993,-8.27076 8.45194,-6.893669 1.11794,0.263045 1.78552,1.1517 2.32716,2.238156 0.84418,1.693305 1.38245,3.86709 2.8431,4.901716 0.32562,0.230647 0.91159,-4.092134 0.98481,-4.677847 0.0102,-0.08143 -0.0779,-0.22025 0,-0.246203 0.97969,-0.326562 2.20637,0.896446 2.70822,1.231014 0.98481,0.65654 -1.31307,-0.328271 0.98481,0.984808 0.63985,0.365628 1.84359,0.246203 2.46203,0.246203 h 2.95443 0.98481 c 0.16413,0 0.37634,0.116062 0.4924,0 0.28514,-0.285131 0.24621,-0.749588 0.24621,-1.107914"
       sodipodi:nodetypes="csssscssscssc" />
    <path
       style="fill:none;stroke:#ff8080;stroke-width:0.264583"
       d="m 136.19189,98.604087 c 0.17589,-0.330183 0.26488,-0.696946 0.36345,-1.055336 0.10925,-0.397231 0.19081,-0.808481 0.37801,-1.177744 0.0836,-0.164902 0.19305,-0.348051 0.38265,-0.399434 0.10507,-0.02848 0.22164,0.104819 0.31118,0.04739 1.05757,-0.678269 2.14342,-1.341507 3.33393,-1.756758 0.62277,-0.217222 1.28977,-0.383539 1.95377,-0.293524 0.45515,0.0617 0.88023,0.304761 1.16277,0.668216 0.38206,0.49148 0.55527,1.108079 0.65829,1.711672 0.20068,1.175826 0.19121,2.372856 0.25666,3.560535 0.0489,0.886794 0.0967,1.787364 0.36068,2.640734 0.16043,0.51868 0.40628,1.07298 0.89099,1.3476 0.069,0.0391 0.21317,0.0937 0.2462,0 0.49117,-1.3932 1.00053,-2.79303 1.24328,-4.253511 0.11937,-0.718171 0.009,-1.443795 -0.0128,-2.16479 -0.002,-0.07968 -0.0768,-0.291151 -0.0164,-0.238829 0.0602,0.05216 0.1043,0.14629 0.14722,0.220935 0.28847,0.501671 0.34109,1.232472 0.8545,1.51215 0.0883,0.04811 0.13477,-0.09802 0.16615,-0.160901 0.0439,-0.0879 0.14157,-0.116046 0.22335,-0.155343 0.20778,-0.09984 0.43175,-0.165857 0.66459,-0.179854 0.99995,-0.06011 1.97934,-0.335526 2.98509,-0.320458 0.52523,0.0079 1.05574,0.12694 1.51037,0.399682 0.57571,0.345382 1.00606,0.880594 1.36249,1.43987 0.51605,0.809729 0.96693,1.655419 1.48816,2.465449 0.18971,0.29482 0.32325,0.62004 0.50246,0.92173 0.0344,0.058 0.14291,0.16475 0.18575,0.0665 0.0773,-0.1774 0.12622,-0.36686 0.16566,-0.55603 0.16422,-0.78769 0.11475,-1.59686 0.0947,-2.39499 -0.007,-0.29328 0.0105,-0.586474 0.009,-0.879728 -0.002,-0.393572 -0.13964,-0.786039 -0.063,-1.178096 0.0262,-0.134322 0.069,-0.282446 0.19412,-0.358479 0.20114,-0.122275 0.45199,-0.124007 0.67764,-0.08149 0.81434,0.15343 1.55498,0.542181 2.34088,0.789475 0.43283,0.136195 0.90619,0.190985 1.29064,0.433822 0.0985,0.06222 0.23047,0.129798 0.24672,0.24414 0.003,0.02167 -0.07,-0.06315 -0.0904,-0.08386 -0.25645,-0.260754 -0.51398,-0.520444 -0.77088,-0.780751"
       id="path3390"
       inkscape:path-effect="#path-effect3392"
       inkscape:original-d="m 136.19189,98.604087 c 0.47843,-0.861708 0.55451,-3.027447 1.43529,-2.585122 10.78504,-6.989458 5.3788,5.719615 8.61709,7.878475 0.0683,0.0455 0.21889,0.0774 0.2462,0 0.484,-1.37133 0.95639,-2.75736 1.23101,-4.185436 0.13949,-0.725319 0,-1.477217 0,-2.215825 0,-0.08207 -0.0455,-0.314486 0,-0.2462 0.36702,0.550524 0.56124,1.215123 0.98482,1.723416 0.0743,0.08916 0.14239,-0.194299 0.2462,-0.246202 0.23212,-0.116063 0.47938,-0.233858 0.7386,-0.246203 1.47555,-0.07026 3.12823,-0.695161 4.43165,0 1.44825,0.772401 1.96962,2.62616 2.95443,3.93924 0.2462,0.32827 0.59838,1.37044 0.73861,0.98481 0.42162,-1.15947 0.18752,-2.46069 0.2462,-3.693036 0.0234,-0.49185 -0.19397,-1.024626 0,-1.477217 0.10223,-0.238535 0.48262,-0.288867 0.73861,-0.246203 0.76796,0.127995 1.47721,0.492406 2.21582,0.738609 0.4924,0.164134 1.00014,0.287946 1.47721,0.492405 0.10668,0.04572 0.32751,0.329025 0.24621,0.246203 -0.28271,-0.287991 -0.56695,-0.574474 -0.85043,-0.861711" />
    <path
       style="fill:none;stroke:#ff8080;stroke-width:0.264583"
       d="m 142.05883,116.69997 c 0.68467,-0.17659 1.30206,-0.53296 1.95136,-0.80221 0.46004,-0.19077 0.95194,-0.35151 1.45768,-0.31766 0.2837,0.019 0.54904,0.13301 0.79709,0.26575 0.77548,0.41498 1.38759,1.06767 1.93536,1.74362 0.72831,0.89874 1.35531,1.89502 2.23353,2.65885 0.17098,0.14871 0.32955,0.32552 0.53634,0.41885 0.16041,0.0724 0.3351,-0.0183 0.45826,-0.12146 0.21135,-0.17699 0.38178,-0.4061 0.48511,-0.6612 0.20777,-0.51293 0.20574,-1.07596 0.21255,-1.62004 0.003,-0.20447 0.0358,-0.40845 0.0277,-0.61264 -0.006,-0.14369 -0.1379,-0.29905 -0.0653,-0.42403 0.0522,-0.09 0.18278,-0.003 0.26219,0.0187 1.08042,0.29326 2.18858,0.53196 3.19922,1.02786 0.40902,0.2007 0.81407,0.42702 1.14816,0.73848 0.41365,0.38563 0.65729,0.90919 0.8754,1.42137 0.24499,0.5753 0.44486,1.17807 0.79862,1.69938 0.23226,0.34226 0.56893,0.62704 0.97513,0.73604 0.15939,0.0428 0.33486,-0.0147 0.44159,-0.14138 0.1688,-0.2003 0.24046,-0.4604 0.30099,-0.70966 0.13499,-0.55586 0.16918,-1.13601 0.35751,-1.67788 0.0851,-0.24474 0.21399,-0.47107 0.32735,-0.70328 0.0933,-0.1911 0.20935,-0.37242 0.28254,-0.57219 0.0539,-0.14709 0.0962,-0.31105 0.22833,-0.41347 0.70054,-0.54306 1.44598,-1.05328 2.29002,-1.34564 0.79229,-0.27443 1.62659,-0.39341 2.45326,-0.5094 0.4574,-0.0642 0.9139,-0.15379 1.37772,-0.15443 0.2555,-3.5e-4 0.57166,-0.10667 0.76374,0.062 0.0717,0.063 0.0466,0.24028 -0.0438,0.2564 -0.0769,0.0137 -0.28262,-0.0765 -0.22648,-0.027 0.13806,0.12167 0.28718,0.23454 0.43282,0.34862 1.02898,0.80603 2.0972,1.55996 3.14144,2.34574"
       id="path3394"
       inkscape:path-effect="#path-effect3396"
       inkscape:original-d="m 142.05883,116.69997 c 1.31308,-0.32827 2.7024,-1.53451 3.93924,-0.98481 2.12116,0.94274 3.02987,3.58235 4.92405,4.92405 0.33484,0.23718 0.82698,-0.35983 0.98481,-0.7386 0.28583,-0.68599 0.17892,-1.47573 0.2462,-2.21583 0.0149,-0.16346 -0.15815,-0.53633 0,-0.4924 1.52716,0.42421 3.18981,0.73851 4.43165,1.72341 1.24847,0.99017 1.18729,3.46396 2.70822,3.93925 0.94649,0.29577 0.81167,-1.80964 1.23101,-2.70823 0.15521,-0.33259 0.32827,-0.65654 0.49241,-0.98481 0.0821,-0.16414 0.10135,-0.37974 0.2462,-0.49241 1.96057,-1.52489 2.73857,-1.56793 5.41646,-1.96962 0.48695,-0.073 0.99151,-0.0809 1.47721,0 0.081,0.0135 0.058,0.18817 0,0.24621 -0.058,0.058 -0.31003,-0.0516 -0.2462,0 1.15631,0.93465 2.37609,1.78794 3.56413,2.68192" />
    <path
       style="fill:none;stroke:#ff8080;stroke-width:0.264583"
       d="m 136.07513,134.18035 c 0.6091,-0.36735 1.31547,-0.57878 1.8559,-1.0528 0.41171,-0.36112 0.72044,-0.83279 0.91152,-1.34679 0.10146,-0.27292 0.14984,-0.56444 0.27542,-0.82854 0.0895,-0.18821 0.2625,-0.32675 0.45923,-0.39096 0.35931,-0.11728 0.74481,-0.11831 1.11751,-0.0968 0.2479,0.0143 0.50333,0.0141 0.73848,0.10779 0.40127,0.15982 0.71341,0.47376 0.99526,0.79178 1.15582,1.30415 2.19093,2.71099 3.15349,4.16173 0.32709,0.49298 0.57211,1.03446 0.7755,1.58978 0.1058,0.28887 0.1834,0.60538 0.40365,0.83199 0.22829,0.23488 0.55505,0.33524 0.86652,0.39855 0.20418,0.0415 0.42484,0.0913 0.62745,0.002 0.42964,-0.18971 0.89812,-0.37148 1.2004,-0.73107 0.0702,-0.0835 -0.0737,-0.20244 0.0507,-0.26735 0.32424,-0.16912 0.62439,-0.41394 0.99059,-0.47654 0.25915,-0.0443 0.51857,0.0204 0.77937,0.0141 0.38212,-0.009 0.77556,-0.0554 1.14707,0.069 0.35824,0.11993 0.68275,0.34187 1.06303,0.39356 0.23823,0.0324 0.47303,-0.0699 0.65075,-0.22755 0.65207,-0.57837 1.32612,-1.15062 1.82546,-1.8738 0.61162,-0.88579 0.82314,-2.05502 1.60713,-2.7914 0.0794,-0.0745 0.18405,0.01 0.28379,-0.006 0.78819,-0.12272 1.52094,-0.48438 2.31758,-0.56561 0.33081,-0.0337 0.6668,0.0114 0.98055,0.12495 0.77279,0.27972 1.43212,0.7912 2.04396,1.3274 0.50595,0.4434 1.04039,0.8562 1.514,1.33466 0.0713,0.0721 0.0256,0.18345 -0.006,0.26272 -0.10891,0.26956 -0.25496,0.51957 -0.38269,0.78164 -0.0394,0.0808 2e-4,0.19082 0.10659,0.18041 0.1977,-0.0193 0.37974,-0.11052 0.55488,-0.19769 0.33655,-0.16751 0.68411,-0.32428 0.98342,-0.55142 0.12198,-0.0926 0.10738,-0.26443 0.084,-0.3987 -0.0331,-0.19023 -0.10469,-0.3747 -0.10875,-0.56936"
       id="path3402"
       inkscape:path-effect="#path-effect3404"
       inkscape:original-d="m 136.07513,134.18035 c 0.68149,-0.41034 1.49764,-0.65327 2.04446,-1.23101 1.52009,-1.60609 0.0582,-2.68481 2.95443,-2.46203 0.47712,0.0367 0.91089,0.38292 1.23101,0.73861 1.17492,1.30546 2.21446,2.73213 3.20063,4.18544 1.34269,1.9787 0.567,2.62467 2.21582,2.95443 0.16095,0.0322 0.34155,0.0647 0.49241,0 0.43984,-0.1885 0.85734,-0.43967 1.23101,-0.73861 0.0641,-0.0513 0,-0.16413 0,-0.2462 0.32827,-0.16413 0.63192,-0.39158 0.98481,-0.4924 0.23673,-0.0676 0.49241,0 0.73861,0 0.32827,0 0.65984,-0.0464 0.98481,0 0.68352,0.0976 1.32189,0.82195 1.96962,0.2462 0.60721,-0.53975 1.24149,-1.06937 1.72342,-1.72342 0.67631,-0.91786 1.09099,-2.00579 1.72341,-2.95443 0.0455,-0.0683 0.16496,0.0116 0.24621,0 1.06858,-0.15265 2.17298,-0.82272 3.20063,-0.4924 1.45331,0.46713 2.501,1.7546 3.69304,2.70822 0.32778,0.26223 -1.75188,2.28214 1.23101,0.49241 0.28149,-0.1689 0,-0.65654 0,-0.98481" />
  </g>
</svg>
