<?xml version="1.0" encoding="UTF-8" standalone="no"?>
<!-- Created with Inkscape (http://www.inkscape.org/) -->

<svg
   width="100mm"
   height="100mm"
   viewBox="0 0 100 100"
   version="1.1"
   id="svg5"
   style="stroke:#000000"
   sodipodi:docname="menu.svg"
   inkscape:version="1.2.1 (9c6d41e410, 2022-07-14)"
   xmlns:inkscape="http://www.inkscape.org/namespaces/inkscape"
   xmlns:sodipodi="http://sodipodi.sourceforge.net/DTD/sodipodi-0.dtd"
   xmlns="http://www.w3.org/2000/svg"
   xmlns:svg="http://www.w3.org/2000/svg">
  <sodipodi:namedview
     id="namedview406"
     pagecolor="#ffffff"
     bordercolor="#000000"
     borderopacity="0.25"
     inkscape:showpageshadow="2"
     inkscape:pageopacity="0.0"
     inkscape:pagecheckerboard="0"
     inkscape:deskcolor="#d1d1d1"
     inkscape:document-units="mm"
     showgrid="false"
     inkscape:zoom="1.3861571"
     inkscape:cx="-13.346251"
     inkscape:cy="133.1018"
     inkscape:window-width="1920"
     inkscape:window-height="992"
     inkscape:window-x="-8"
     inkscape:window-y="-8"
     inkscape:window-maximized="1"
     inkscape:current-layer="svg5" />
  <defs
     id="defs2" />
  <g
     id="layer1"
     transform="matrix(1.7097548,0,0,1.7259232,-34.328712,-13.605058)"
     style="fill:none;stroke-width:2.31034104;stroke-dasharray:none">
    <path
       id="path3656"
       style="fill:none;fill-opacity:1;stroke-width:2.31034104;stroke-dasharray:none;stroke-opacity:1"
       d="m 42.997411,12.423258 c 0,0 1.491882,7.62607 -2.374015,9.830407 -3.865674,2.20421 -9.330697,-3.155363 -9.330697,-3.155363 l -6.397026,11.079427 c 0,0 7.435723,2.225106 7.435722,6.675045 -10e-7,4.449943 -7.435722,6.674528 -7.435722,6.674528 l 6.397026,11.079944 c 0,0 5.478489,-5.379816 9.332247,-3.154846 3.853759,2.22497 2.228804,9.829891 2.228804,9.829891 h 12.793535 c 0,0 -1.532712,-7.553835 2.315104,-9.789067 3.883723,-2.256091 9.390124,3.114022 9.390124,3.114022 l 6.396509,-11.079427 c 0,0 -7.423319,-2.225104 -7.423319,-6.675045 0,-4.449939 7.423319,-6.675045 7.423319,-6.675045 L 67.352513,19.098302 c 0,0 -5.4604,5.383434 -9.31416,3.158464 -3.853761,-2.22497 -2.247408,-9.833508 -2.247408,-9.833508 z m 6.325195,12.039058 A 12.088838,12.390198 0 0 1 61.411274,36.852774 12.088838,12.390198 0 0 1 49.322606,49.242716 12.088838,12.390198 0 0 1 37.233422,36.852774 12.088838,12.390198 0 0 1 49.322606,24.462316 Z" />
  </g>
</svg>
